HIERARCHY
ROOT Hips
{
  OFFSET 263.056 91.6644 -274.608
  CHANNELS 6 Xposition Yposition Zposition Zrotation Xrotation Yrotation
  JOINT LeftUpLeg
  {
    OFFSET 8.64259 1.95398 -2.38835
    CHANNELS 3 Zrotation Xrotation Yrotation
    JOINT LeftLeg
    {
      OFFSET 43.7702 0 0
      CHANNELS 3 Zrotation Xrotation Yrotation
      JOINT LeftFoot
      {
        OFFSET 40.6238 0 0
        CHANNELS 3 Zrotation Xrotation Yrotation
        JOINT LeftToeBase
        {
          OFFSET 12.7242 0 0
          CHANNELS 3 Zrotation Xrotation Yrotation
          End Site
          {
            OFFSET 0 0 0
          }
        }
      }
    }
  }
  JOINT RightUpLeg
  {
    OFFSET -8.2249 1.95398 -2.59336
    CHANNELS 3 Zrotation Xrotation Yrotation
    JOINT RightLeg
    {
      OFFSET 43.5653 0 0
      CHANNELS 3 Zrotation Xrotation Yrotation
      JOINT RightFoot
      {
        OFFSET 40.6238 0 0
        CHANNELS 3 Zrotation Xrotation Yrotation
        JOINT RightToeBase
        {
          OFFSET 12.7242 0 0
          CHANNELS 3 Zrotation Xrotation Yrotation
          End Site
          {
            OFFSET 0 0 0
          }
        }
      }
    }
  }
  JOINT Spine
  {
    OFFSET 0.165834 0.87714 6.61349
    CHANNELS 3 Zrotation Xrotation Yrotation
    JOINT Spine1
    {
      OFFSET 7.38963 1.71661e-005 0
      CHANNELS 3 Zrotation Xrotation Yrotation
      JOINT Spine2
      {
        OFFSET 11.9445 1.14441e-005 0
        CHANNELS 3 Zrotation Xrotation Yrotation
        JOINT Spine3
        {
          OFFSET 14.7254 4.19617e-005 0
          CHANNELS 3 Zrotation Xrotation Yrotation
          JOINT Spine4
          {
            OFFSET 10.9679 0 0
            CHANNELS 3 Zrotation Xrotation Yrotation
            JOINT RightShoulder
            {
              OFFSET 2.46616 -1.6653 3.69651
              CHANNELS 3 Zrotation Xrotation Yrotation
              JOINT RightArm
              {
                OFFSET 13.0012 0 0
                CHANNELS 3 Zrotation Xrotation Yrotation
                JOINT RightForeArm
                {
                  OFFSET 28.7848 1.52588e-005 0
                  CHANNELS 3 Zrotation Xrotation Yrotation
                  JOINT RightHand
                  {
                    OFFSET 26.5688 1.52588e-005 0
                    CHANNELS 3 Zrotation Xrotation Yrotation
                    End Site
                    {
                      OFFSET 0 0 0
                    }
                  }
                }
              }
            }
            JOINT LeftShoulder
            {
              OFFSET 2.38034 -1.29275 -3.7523
              CHANNELS 3 Zrotation Xrotation Yrotation
              JOINT LeftArm
              {
                OFFSET 16.3182 6.10352e-005 0
                CHANNELS 3 Zrotation Xrotation Yrotation
                JOINT LeftForeArm
                {
                  OFFSET 27.0901 0 0
                  CHANNELS 3 Zrotation Xrotation Yrotation
                  JOINT LeftHand
                  {
                    OFFSET 24.5451 1.52588e-005 0
                    CHANNELS 3 Zrotation Xrotation Yrotation
                    End Site
                    {
                      OFFSET 0 0 0
                    }
                  }
                }
              }
            }
            JOINT Neck
            {
              OFFSET 5.0226 -0.0266342 0
              CHANNELS 3 Zrotation Xrotation Yrotation
              JOINT Head
              {
                OFFSET 6.69364 2.86102e-005 0
                CHANNELS 3 Zrotation Xrotation Yrotation
                End Site
                {
                  OFFSET 0 0 0
                }
              }
            }
          }
        }
      }
    }
  }
}
MOTION
Frames:	9
Frame Time:	0.0416667
-235.484 90.9546 -259.72 -96.8869 42.1065 -85.7945 -173.534 -7.76475 94.7689 -40.3757 35.3071 2.38536 50.7787 -5.20798 5.34379 56.5253 32.6642 5.84561 177.088 23.49 92.0235 -38.931 7.23947 1.05995 66.1568 -2.5276 -1.38074 30.4401 -0.545219 13.1658 -1.05945 7.72038 -89.9408 11.4372 -2.0801 0.330309 -0.232148 -2.06351 0.421566 -22.7804 -2.08316 -0.310394 -2.76776 -2.08314 -0.310384 80.5849 -53.2719 -113.79 17.2783 2.5174 23.1824 -7.45864 -8.80448 -32.6371 -5.89583 -0.592926 5.77155 -100.469 -42.0995 60.1309 -18.483 -3.24041 7.83967 13.2628 4.40473 -58.6879 14.5927 1.36567 5.35876 6.31921 7.47432 1.07604 1.33089 7.3131 4.90285 
-230.384 91.0376 -253.291 -96.5506 38.2064 -86.3399 -173.384 -8.55594 94.3351 -34.5947 33.2362 2.78538 58.1637 3.75583 11.4732 63.4599 35.5778 -3.88205 176.822 25.1297 89.7282 -31.7456 8.50802 1.7011 59.2877 -0.504513 -0.190313 24.5708 -1.50313 12.4075 -1.39071 7.88532 -89.9421 11.109 -2.74135 0.381128 -0.559199 -2.7219 0.501487 -23.1172 -2.72906 -0.461014 -3.10453 -2.72904 -0.461012 79.1238 -55.8467 -114.902 16.3966 5.06255 24.703 -2.30364 1.46361 -30.3514 -9.888 -0.914077 5.87359 -100.436 -40.8603 59.6313 -16.7006 -2.57488 3.31571 11.2907 4.7193 -53.2274 16.0604 1.64265 6.27719 6.51328 6.53703 -1.41871 1.71698 6.97718 6.80778 
-223.591 91.6344 -246.48 -94.2265 39.5273 -91.1976 -173.249 -3.70448 88.5099 -30.4962 21.3594 0.0374019 61.9839 8.61803 14.5569 60.6297 30.3061 -9.93063 178.386 24.4571 85.8409 -13.7455 4.04352 0.0142706 46.6836 2.88709 2.70011 23.6296 -1.21897 8.2805 -1.23531 7.89673 -89.5479 11.0923 -2.24894 1.11739 -0.577257 -2.19757 1.2153 -23.1273 -2.48075 0.389472 -3.11465 -2.48076 0.389476 77.6327 -57.0408 -116.504 17.3183 3.52078 23.0402 0.233637 3.92542 -29.7598 -9.0298 -0.669247 3.84606 -100.51 -39.9764 59.1148 -16.7588 -1.93311 1.50681 9.54719 4.40355 -49.5249 16.6241 1.35199 4.23594 7.17799 5.88934 -2.7208 2.81006 6.66465 6.72119 
-218.541 93.1544 -240.076 -95.1617 43.117 -90.3407 -173.413 -1.71372 86.4454 -26.5477 18.1444 -0.825564 64.191 10.2807 14.1776 48.7651 19.9307 -8.3536 179.142 22.4049 85.6016 -11.3364 -1.95712 -1.39785 47.5304 3.14705 2.84973 39.8818 0.880493 4.97334 -0.766538 8.07411 -89.5421 10.7313 -1.31544 1.0303 -0.939439 -1.26881 1.08718 -23.4786 -1.56424 0.587281 -3.46595 -1.56424 0.587274 76.6061 -57.5461 -117.703 17.7841 0.109817 21.3784 -2.05798 -1.12924 -34.5477 -7.33202 -0.559679 3.92708 -100.387 -40.1435 59.3869 -18.7724 0.554712 3.51158 9.02903 4.51516 -48.9449 16.214 1.35517 4.45094 7.15989 5.82194 -1.84225 3.85005 6.43095 5.91336 
-213.659 94.7378 -234.707 -96.8359 45.013 -87.0173 -173.332 1.02899 87.4238 -24.6873 15.6912 -0.574516 62.4571 6.59832 11.4924 46.0334 17.146 -9.56063 -179.982 21.6973 87.3466 -27.02 1.85304 -2.77875 54.4786 0.561036 0.609533 40.9655 0.859806 2.40752 -0.45503 8.16977 -89.7648 10.5362 -0.79833 0.539379 -1.13458 -0.773824 0.573998 -23.6715 -0.923524 0.274499 -3.65885 -0.923539 0.274498 75.9502 -56.9563 -118.828 18.1487 -3.77489 19.0941 -4.79403 -7.42868 -40.2034 -5.93049 -0.482644 3.68051 -100.352 -40.6374 59.6658 -22.5415 3.38579 7.87003 8.74942 5.64141 -46.8032 15.2107 1.29951 4.60217 6.50459 5.95345 -1.48194 3.93286 6.49696 6.0671 
-209.095 95.7784 -230.393 -96.5381 44.7448 -86.78 -173.605 3.71517 87.8105 -20.8432 16.6663 -0.805594 59.0323 3.24379 12.1782 46.2925 16.6104 -13.7749 178.726 19.4209 87.113 -41.6931 5.77217 -3.1892 54.5715 0.202375 0.365562 49.3452 1.45164 1.51002 -0.418957 7.9791 -89.8392 10.9171 -0.759684 0.391626 -0.75374 -0.741706 0.424672 -23.2906 -0.842263 0.145193 -3.27794 -0.842252 0.145186 77.4445 -55.2255 -117.471 19.1646 -7.58906 15.7204 -7.70999 -11.2074 -45.9206 -8.09683 -0.595629 2.61329 -100.625 -40.8338 59.3221 -27.6735 6.09153 12.8299 6.86892 6.80235 -40.7655 13.3717 0.979204 3.34653 4.99653 6.04398 -0.431563 4.1215 6.35972 5.49547 
-204.239 95.8271 -226.201 -96.1984 44.1986 -86.7137 -173.505 7.80908 88.0917 -20.3096 15.547 -1.1182 59.6412 2.73368 10.1351 37.1579 8.74985 -12.9921 177.261 14.9994 86.7631 -52.0689 6.96713 -3.51544 56.462 -0.766772 -0.340345 40.968 0.9315 4.13406 -0.247376 7.82084 -89.8768 11.2327 -0.434998 0.288245 -0.438183 -0.421891 0.307112 -22.9738 -0.501519 0.144182 -2.9612 -0.501527 0.14418 78.7738 -54.5641 -115.873 18.7567 -9.15736 12.3131 -12.4023 -12.1387 -52.3452 -8.80502 -0.635551 2.42761 -100.758 -40.7935 59.095 -32.1302 8.52451 16.2881 4.83246 9.39008 -33.6673 10.4622 0.694171 2.59826 5.0597 5.23572 -0.263952 3.26919 5.46645 4.95744 
-199.115 94.5196 -222.307 -94.7497 44.832 -88.1945 -173.807 13.7963 87.6596 -22.2825 15.692 -1.51848 60.7138 4.17952 11.2834 30.2496 2.52986 -11.6308 177.039 9.59116 86.0899 -56.0577 1.22863 -4.61896 51.518 1.21287 1.13589 46.6239 1.47226 4.05642 0.144019 7.63618 -89.7834 11.6012 0.388058 0.390915 -0.0697086 0.404866 0.373449 -22.6047 0.252621 0.489467 -2.59203 0.252624 0.489461 79.8988 -53.0106 -114.869 18.4192 -8.73233 9.03961 -16.4939 -11.4465 -58.4616 -5.825 -0.47223 1.78655 -100.111 -40.4056 59.9447 -35.572 9.94692 17.9807 3.58325 14.9196 -27.1828 10.7039 0.690896 2.43825 6.33122 4.3069 -0.44732 1.47995 4.51886 5.07498 
-193.284 93.0823 -218.159 -93.5741 45.7634 -90.1763 -174.103 20.3252 87.0787 -24.1671 13.192 -1.6366 58.8112 2.1044 9.25256 30.8762 3.08155 -11.4143 177.265 2.67298 85.2719 -53.33 -8.10046 -6.36444 50.5743 2.57808 2.14667 51.666 1.75829 2.72833 0.573866 7.56613 -89.6176 11.7381 1.32098 0.624278 0.0677291 1.34719 0.565517 -22.47 1.07231 0.99245 -2.45732 1.0723 0.992441 80.2521 -51.5151 -114.93 16.4914 -8.52334 5.05407 -19.5984 -11.9414 -61.38 -5.39063 -0.48506 2.16075 -99.8707 -41.2116 60.681 -36.5945 7.79956 19.956 3.08406 14.4708 -23.9569 13.3782 0.910517 2.85114 7.90577 3.16465 0.0564061 0.373812 3.22316 4.31976 
